<?xml version="1.0" encoding="UTF-8" standalone="no"?>
<svg
   id="Layer_1"
   x="0px"
   y="0px"
   viewBox="0 0 192 272"
   xmlns="http://www.w3.org/2000/svg"
   xmlns:svg="http://www.w3.org/2000/svg"
   fill="currentColor"
   xml:space="preserve">
   <path
      stroke="none"
      d="m 150.87788,251.95322 c -13.29284,9.14679 -27.57,13.92624 -43.45588,13.39358 -10.945682,-0.36703 -21.913203,0.83597 -32.813815,-1.77411 -32.542362,-7.7921 -55.942822,-36.96443 -55.955357,-70.27899 -0.01423,-37.81625 -0.078,-75.6327 0.02093,-113.448706 C 18.775297,41.031956 51.303162,8.637128 90.209976,8.727808 102.14914,8.755634 114.14902,7.55377 126.00453,10.57091 c 32.88805,8.369768 55.29285,36.806478 55.33797,70.712766 0.0495,37.149844 0.0658,74.299864 0.008,111.449664 -0.0382,24.75729 -10.65235,44.18007 -30.47312,59.21988 M 89.762024,129.93211 c -1.824928,-1.23803 -3.546326,-2.75004 -4.320259,-4.74972 -1.589356,-4.1065 -4.40052,-4.98817 -8.566719,-4.91474 -14.318798,0.25235 -28.646988,0.23567 -42.966694,0.0102 -4.264418,-0.0671 -5.849798,1.05995 -5.809893,5.57164 0.201798,22.81547 -0.105985,45.63604 0.162155,68.45016 0.34865,29.6642 22.572504,55.67465 51.911955,60.39726 13.663765,2.19937 27.592571,2.15384 41.260221,-0.18353 25.53439,-4.36676 48.54071,-28.4942 49.90515,-54.351 1.33229,-25.24751 0.38719,-50.61447 0.486,-75.92883 0.0106,-2.71823 -1.05938,-3.91117 -3.84787,-3.90032 -15.82193,0.0616 -31.64424,0.0592 -47.46626,0.0186 -2.24026,-0.006 -3.53478,0.81682 -4.72284,2.82418 -6.12639,10.35116 -14.74721,12.70214 -26.024946,6.75603 m 60.737796,-19.18603 c 5.82589,-0.003 11.65196,-0.035 17.47758,0.003 2.35149,0.0155 3.88573,-0.70737 3.80914,-3.38376 -0.36593,-12.784931 1.24285,-25.65044 -1.11381,-38.349239 -5.30496,-28.585838 -32.08714,-50.916267 -60.45619,-50.834751 -3.94464,0.01134 -5.29038,1.311277 -5.21804,5.177101 0.17749,9.484749 0.13376,18.975605 0.0315,28.462414 -0.0302,2.79747 0.82543,4.519287 3.43133,5.923618 6.06501,3.268482 9.0163,8.497868 8.92614,15.530293 -0.13442,10.48497 0.21299,20.981376 -0.14323,31.455954 -0.16888,4.96583 1.60212,6.27651 6.29172,6.1041 8.64408,-0.31778 17.30819,-0.0907 26.96386,-0.0892 M 36.882538,49.393467 c -2.822899,5.102318 -5.215134,10.35194 -6.705767,16.045032 -3.479223,13.287995 -1.323278,26.814164 -2.026541,40.214481 -0.206514,3.93502 1.306958,5.1941 5.19423,5.14833 14.639083,-0.17233 29.282909,-0.1844 43.921585,0.005 4.186004,0.0541 5.50711,-1.48591 5.436287,-5.53245 -0.18631,-10.644764 0.05043,-21.29649 -0.09116,-31.942646 -0.09363,-7.039985 2.954025,-12.214184 8.88398,-15.597172 2.536209,-1.44688 3.481277,-3.17353 3.456276,-5.966648 -0.08485,-9.48262 -0.149971,-18.969242 0.04708,-28.448728 0.08201,-3.945002 -1.385842,-5.284958 -5.268235,-5.101797 -22.826728,1.076913 -40.17184,11.454708 -52.847732,31.176788"
      id="path2"
   />
   <path
      stroke="none"
      d=" M130.674454,77.880173   C127.296722,77.356819 124.983719,75.917519 125.232986,72.694855   C125.502953,69.204651 128.344574,68.187134 131.368362,68.053772   C134.693298,67.907112 138.039032,67.888336 141.359467,68.086319   C144.338470,68.263931 147.169861,69.132088 147.211243,72.870560   C147.255737,76.892197 144.259659,77.765953 141.096268,77.938026   C137.774857,78.118690 134.434265,77.946823 130.674454,77.880173  z"
      id="path4" />
   <path
      stroke="none"
      d=" M133.882996,45.661453   C130.889709,48.811207 128.135681,51.694241 125.292801,54.486801   C122.996819,56.742130 120.282272,57.537193 117.849815,54.999916   C115.649513,52.704830 116.297035,50.046955 118.355965,47.871983   C120.867050,45.219383 123.500107,42.680248 126.124947,40.138027   C127.933640,38.386261 130.083710,37.416962 132.417740,38.897648   C134.842194,40.435684 135.508331,42.691856 133.882996,45.661453  z"
      id="path6" />
   <path
      stroke="none"
      d=" M59.408325,67.964371   C63.188717,68.000961 66.528519,67.917831 69.847374,68.143227   C72.684814,68.335930 74.594910,70.056709 74.750786,72.904480   C74.916702,75.935669 72.759109,77.487434 70.054245,77.751846   C66.586189,78.090858 63.071465,78.057533 59.579067,78.012520   C56.206551,77.969048 52.969139,77.245117 52.825306,73.040321   C52.687527,69.012566 55.826183,68.360397 59.408325,67.964371  z"
      id="path8" />
   <path
      stroke="none"
      d=" M69.552940,49.403580   C69.181435,49.031719 69.061935,48.917141 68.948990,48.796436   C66.468987,46.146046 62.933899,43.342659 66.720680,39.653572   C70.454796,36.015789 73.281372,39.489998 75.881332,42.032551   C78.008591,44.112850 80.164108,46.183277 82.095734,48.439072   C83.898186,50.544006 84.225014,53.072323 82.194443,55.159981   C80.153641,57.258137 77.638214,57.004601 75.496117,55.186703   C73.484726,53.479733 71.695168,51.511360 69.552940,49.403580  z"
      id="path10" />
</svg>