<?xml version="1.0" encoding="UTF-8"?>
<svg
   id="Layer_1"
   x="0px"
   y="0px"
   width="100%"
   viewBox="0 0 192 272"
   xml:space="preserve"
   xmlns="http://www.w3.org/2000/svg"
   xmlns:svg="http://www.w3.org/2000/svg"
>
<path
   fill="currentColor"
   opacity="1.000000"
   stroke="none"
   d=" M209.000000,59.583336   C207.079224,62.309029 204.480545,62.439537 201.749008,62.386509   C196.937195,62.293106 192.121384,62.392849 187.310181,62.283592   C184.827484,62.227215 183.277405,60.712971 182.874237,58.337784   C182.456802,55.878399 183.728668,53.535107 185.977005,53.369637   C193.451614,52.819530 201.076904,50.971558 208.675201,54.785149   C209.000000,56.388889 209.000000,57.777779 209.000000,59.583336  z"
   id="path2656" />
<path
   fill="currentColor"
   opacity="1"
   stroke="none"
   d="m 112.98547,31.659395 c 35.38047,-1.224384 67.42972,24.046114 73.82646,60.220549 0.77912,4.405968 1.24732,8.927956 1.26235,13.398176 0.10365,30.83049 0.16574,61.66208 0.0127,92.49221 -0.16293,32.81822 -20.39089,60.3944 -51.50194,70.44015 -6.34433,2.04852 -12.86964,3.42944 -19.61655,3.19296 -12.10856,-0.42435 -24.250269,0.9646 -36.302821,-1.93387 -32.095245,-7.71829 -55.783723,-36.98228 -55.937841,-69.99617 -0.150146,-32.16337 -0.153183,-64.32859 2.57e-4,-96.49193 0.162148,-33.988756 26.381356,-64.533884 59.845681,-70.311689 9.294952,-1.60483 18.611354,-0.685753 28.411724,-1.010386 m -7.48413,230.121065 c 7.14489,-0.17343 14.28026,0.24106 21.41638,-1.02283 25.43068,-4.50403 47.85675,-27.36429 50.61641,-52.79018 2.43163,-22.40364 0.6599,-44.9391 1.00627,-67.41279 0.0606,-3.92989 -1.72401,-5.4979 -5.83235,-5.44284 -14.82699,0.19874 -29.65866,0.15214 -44.48732,0.0377 -3.16285,-0.0244 -5.06895,0.93379 -6.80928,3.76272 -7.41623,12.05527 -23.125897,11.96901 -30.211629,-0.14816 -1.587211,-2.71427 -3.346962,-3.63168 -6.339599,-3.60855 -14.995377,0.11584 -29.994023,0.20335 -44.987007,-0.0125 -4.440834,-0.0639 -5.680462,1.45709 -5.63509,5.78364 0.200924,19.15973 0.009,38.32317 0.108894,57.48448 0.09009,17.28737 6.229904,32.22502 18.352303,44.52239 14.23463,14.44008 31.818264,20.03529 52.802018,18.84688 M 35.194199,95.603081 c -1.620335,7.913929 -0.381577,15.937739 -0.936287,23.881839 -0.326702,4.6787 1.565719,6.18758 6.010517,6.14576 14.473999,-0.13617 28.951916,-0.17736 43.424213,0.0308 4.124863,0.0593 5.121514,-1.60303 5.036217,-5.32529 -0.1791,-7.81575 -0.08641,-15.63903 -0.02645,-23.458622 0.05544,-7.23014 2.962532,-12.955238 9.526031,-16.30043 2.62001,-1.33532 3.5099,-3.033836 3.47013,-5.870766 -0.13061,-9.315628 -0.27421,-18.642029 0.0476,-27.948372 0.15818,-4.574035 -1.59044,-5.540596 -5.802014,-5.531955 C 66.487331,41.286495 39.721675,64.785779 35.19421,95.603101 M 98.326931,109.5061 c 0.0015,6.16334 -0.03809,12.32703 0.01597,18.48991 0.05664,6.45677 2.858339,9.8589 8.002079,9.87036 5.09128,0.0113 8.57398,-4.17172 8.14054,-10.40998 -0.46337,-6.669 -0.32067,-13.30041 0.0168,-19.96121 0.20142,-3.97527 0.39634,-7.994908 -0.39151,-11.958432 -0.98218,-4.941033 -4.11358,-7.584862 -8.5547,-7.21949 -4.05212,0.333382 -6.943578,3.480957 -7.1667,8.201057 -0.188568,3.989235 -0.05368,7.993755 -0.06251,12.987785"
   id="path2658"
   />
<path
   fill="currentColor"
   opacity="1.000000"
   stroke="none"
   d=" M171.120728,33.626648   C170.863831,35.375954 170.804108,36.751766 170.311951,37.949940   C169.493851,39.941586 167.893265,41.275780 165.660858,41.033733   C163.233536,40.770554 161.793793,39.097832 161.453339,36.726791   C160.620834,30.928608 160.845154,25.102922 161.406845,19.300825   C161.678467,16.495031 163.150299,14.618089 166.278992,14.752217   C169.397842,14.885923 170.745132,17.036747 170.915970,19.693680   C171.203995,24.172825 171.076385,28.678698 171.120728,33.626648  z"
   id="path2660" />
<path
   fill="currentColor"
   opacity="1.000000"
   stroke="none"
   d=" M199.957352,28.047245   C197.089767,35.710533 190.749786,39.937183 185.133301,44.736298   C183.583008,46.060966 181.248489,45.522259 179.727371,43.782398   C178.241852,42.083237 177.935272,39.829586 179.208389,38.219486   C183.335892,32.999557 187.794632,27.939404 193.423141,24.354502   C196.397659,22.459993 198.749161,24.554047 199.957352,28.047245  z"
   id="path2662" />
</svg>