<svg fill="currentColor" version="1.1" id="Layer_1" viewBox="0 0 512.213 512.213" xml:space="preserve"
    xmlns="http://www.w3.org/2000/svg"
    xmlns:svg="http://www.w3.org/2000/svg">
    <g id="bgCarrier" stroke-width="0" />
    <g id="tracerCarrier" stroke-linecap="round" stroke-linejoin="round" />
    <g id="iconCarrier">
        <g transform="translate(1 1)" id="g12">
            <g id="g10">
                <g id="g8">
                    <path d="M350.564,419.227c0-0.868,0-2.603,0-3.471v-118.02c10.414-11.281,12.149-28.637,5.207-42.522 c-1.736-2.603-1.736-6.075,0-8.678c5.207-10.414,5.207-23.43,0-34.712c-1.736-2.603-1.736-6.075,0-8.678 c5.207-10.414,5.207-23.43,0-34.712c-1.736-2.603-1.736-6.075,0-8.678c6.942-14.753,5.207-31.241-5.207-43.39 c-2.603-40.786-30.373-75.498-69.424-86.78v-2.603c0-13.885-9.546-26.034-22.563-27.769c-7.81-0.868-14.753,0.868-20.827,6.075 c-5.207,5.207-8.678,12.149-8.678,19.959v3.471c-39.051,11.281-67.688,45.993-69.424,86.78 c-9.546,13.017-11.281,31.241-3.471,45.993c0.868,0.868,0.868,2.603,0,4.339c-6.942,12.149-6.942,26.902,0,39.051 c0.868,0.868,0.868,2.603,0,4.339c-6.942,12.149-6.942,26.902,0,39.051c0.868,0.868,0.868,2.603,0,4.339 c-8.678,14.753-6.942,32.976,3.471,45.125v118.02c0,0.868,0,2.603,0,3.471c-21.695,12.149-26.034,26.034-26.034,35.58 c0,32.109,52.068,56.407,121.492,56.407s121.492-24.298,121.492-56.407C376.598,445.261,372.259,431.376,350.564,419.227z M255.107,493.857c-59.878,0-104.136-20.827-104.136-39.051c0-5.833,4.359-11.665,12.348-17.136 c4.663,8.306,13.652,15.268,26.703,20.607c5.207,2.603,10.414,0,13.017-4.339c1.736-4.339,0.868-9.546-2.603-12.149 l-23.43-20.827c0-1.736,0-3.471,0-5.207V290.793l-2.603-2.603c-6.942-6.942-8.678-18.224-3.471-26.902 c0.286-0.572,0.54-1.152,0.779-1.736h5.296c5.207,0,8.678-3.471,8.678-8.678c0-5.207-3.471-8.678-8.678-8.678h-4.95 c-0.322-0.879-0.696-1.748-1.124-2.603c-3.471-6.075-3.471-14.753,0-21.695c0.286-0.572,0.54-1.152,0.779-1.736h13.974 c5.207,0,8.678-3.471,8.678-8.678s-3.471-8.678-8.678-8.678h-13.628c-0.322-0.879-0.696-1.748-1.124-2.603 c-3.471-6.075-3.471-14.753,0-21.695c0.286-0.572,0.54-1.152,0.779-1.736h5.296c5.207,0,8.678-3.471,8.678-8.678 s-3.471-8.678-8.678-8.678h-4.95c-0.322-0.879-0.696-1.748-1.124-2.603c-5.207-8.678-3.471-19.959,3.471-26.902l2.603-2.603 v-3.471c0.868-36.447,26.902-68.556,62.481-75.498l6.942-1.736V25.247c0-2.603,0.868-5.207,3.471-6.942 c0.868-0.868,2.603-1.736,5.207-1.736c0,0,0.868,0,1.736,0c4.339,0,6.942,5.207,6.942,9.546v16.488l6.942,1.736 c35.58,6.942,61.614,39.051,62.481,74.63v3.471l2.603,1.736c6.942,6.942,8.678,17.356,4.339,26.034 c-0.756,1.7-1.336,3.442-1.763,5.207h-5.179c-5.207,0-8.678,3.471-8.678,8.678s3.471,8.678,8.678,8.678h6.24 c0.218,0.582,0.448,1.162,0.703,1.736c3.471,6.075,3.471,13.885,0,19.959c-0.692,1.384-1.239,2.838-1.656,4.339H324.53 c-5.207,0-8.678,3.471-8.678,8.678s3.471,8.678,8.678,8.678h14.917c0.218,0.582,0.448,1.162,0.703,1.736 c3.471,6.075,3.471,13.885,0,19.959c-0.632,1.421-1.145,2.871-1.547,4.339h-5.396c-5.207,0-8.678,3.471-8.678,8.678 c0,5.207,3.471,8.678,8.678,8.678h5.932c0.297,0.876,0.629,1.746,1.01,2.603c4.339,8.678,2.603,19.091-4.339,26.034l-2.603,2.603 v124.963c0,2.603,0,5.207,0,7.81l-0.868,6.075l0.351,0.175c-1.185,2.536-3.089,4.792-5.558,6.767 c-17.356,14.753-61.614,16.488-86.78,14.753c-5.207-0.868-9.546,3.471-9.546,7.81c-0.868,5.207,2.603,9.546,7.81,9.546 c1.736,0,8.678,0.868,18.224,0.868c23.431,0,60.746-2.603,81.573-19.092c4.073-3.62,7.192-7.716,9.377-12.157 c7.406,5.285,11.45,10.89,11.45,16.496C359.242,473.03,314.985,493.857,255.107,493.857z" id="path4">
                    </path>
                    <path d="M246.429,85.993c5.207,0,8.678-3.471,8.678-8.678s-3.471-8.678-8.678-8.678c-24.298,0-43.39,23.431-43.39,52.068 c0,5.207,3.471,8.678,8.678,8.678s8.678-3.471,8.678-8.678C220.395,101.613,231.676,85.993,246.429,85.993z" id="path6">
                    </path>
                </g>
            </g>
        </g>
    </g>

    <!-- Prohibition diagonal line -->
    <line x1="50" y1="50" x2="462" y2="462" stroke="currentColor" stroke-width="20" stroke-linecap="round" id="line15" style="fill:currentColor;stroke:currentColor;stroke-opacity:1;stroke-width:30.73278;stroke-dasharray:none" />

</svg>
