<svg viewBox="0 0 512 512" xmlns="http://www.w3.org/2000/svg">
    <!-- Define gradient -->
    <defs>
        <linearGradient id="blueGradient" x1="0%" y1="0%" x2="0%" y2="100%">
            <stop offset="0%" style="stop-color:#0f1c2e" />
            <stop offset="100%" style="stop-color:#1386b7" />
        </linearGradient>
    </defs>

    <!-- Pill bottom (now with gradient) -->
    <path fill="currentColor"
        d="M50.085,269.326c-53.182,53.182-53.182,139.406,0,192.587l0,0 c53.182,53.182,139.406,53.182,192.587,0l109.62-109.62L159.706,159.706L50.085,269.326z" />

    <!-- Pill top red part -->
    <path fill="url(#blueGradient)"
        d="M461.915,50.085L461.915,50.085c-53.182-53.182-139.407-53.182-192.589,0l-109.62,109.621 l192.589,192.589l109.62-109.62C515.096,189.492,515.096,103.267,461.915,50.085z" />

    <!-- Steam logo -->
    <g transform="translate(350,40) scale(0.7) rotate(45)">
        <path fill="white"
            d="M127.779 0C60.42 0 5.24 52.412 0 119.014l68.724 28.674a35.812 35.812 0 0 1 20.426-6.366c.682 0 1.356.019 2.02.056l30.566-44.71v-.626c0-26.903 21.69-48.796 48.353-48.796 26.662 0 48.352 21.893 48.352 48.796 0 26.902-21.69 48.804-48.352 48.804-.37 0-.73-.009-1.098-.018l-43.593 31.377c.028.582.046 1.163.046 1.735 0 20.204-16.283 36.636-36.294 36.636-17.566 0-32.263-12.658-35.584-29.412L4.41 164.654c15.223 54.313 64.673 94.132 123.369 94.132 70.818 0 128.221-57.938 128.221-129.393C256 57.93 198.597 0 127.779 0zM80.352 196.332l-15.749-6.568c2.787 5.867 7.621 10.775 14.033 13.47 13.857 5.83 29.836-.803 35.612-14.799a27.555 27.555 0 0 0 .046-21.035c-2.768-6.79-7.999-12.086-14.706-14.909-6.67-2.795-13.811-2.694-20.085-.304l16.275 6.79c10.222 4.3 15.056 16.145 10.794 26.46-4.253 10.314-15.998 15.195-26.22 10.895zm121.957-100.29c0-17.925-14.457-32.52-32.217-32.52-17.769 0-32.226 14.595-32.226 32.52 0 17.926 14.457 32.512 32.226 32.512 17.76 0 32.217-14.586 32.217-32.512zm-56.37-.055c0-13.488 10.84-24.42 24.2-24.42 13.368 0 24.208 10.932 24.208 24.42 0 13.488-10.84 24.421-24.209 24.421-13.359 0-24.2-10.933-24.2-24.42z" />
    </g>

    <!-- Pill outline -->
    <path fill="black" stroke="black"
        d="M469.127,42.874C441.479,15.226,404.72,0,365.62,0s-75.859,15.226-103.506,42.873L152.5,152.489 c-0.002,0.002-0.003,0.003-0.005,0.005L42.873,262.114C15.226,289.762,0,326.521,0,365.62s15.226,75.858,42.873,103.506 C70.521,496.774,107.28,512,146.38,512s75.859-15.226,103.506-42.873l109.615-109.616c0.002-0.002,0.003-0.003,0.005-0.005 l109.62-109.62C496.774,222.238,512,185.479,512,146.38C512,107.28,496.774,70.521,469.127,42.874z M235.461,454.702 c-23.794,23.795-55.431,36.9-89.081,36.9s-65.288-13.105-89.082-36.9c-23.795-23.794-36.9-55.431-36.9-89.082 s13.105-65.287,36.9-89.082L159.706,174.13L337.87,352.294L235.461,454.702z M454.702,235.461L352.294,337.87L174.13,159.706 L276.539,57.298c23.794-23.795,55.431-36.9,89.081-36.9s65.288,13.105,89.082,36.9c23.795,23.794,36.9,55.431,36.9,89.082 C491.602,180.03,478.497,211.667,454.702,235.461z" />

    <path fill="url(#blueGradient)"
        d="M153.936,196.772l-65.275,65.275c-3.983,3.983-3.983,10.441,0,14.425c1.992,1.991,4.601,2.986,7.212,2.986 s5.22-0.995,7.212-2.987l65.275-65.275c3.983-3.983,3.983-10.441,0-14.425C164.375,192.788,157.919,192.788,153.936,196.772z">
    </path>
    <path fill="#1386b7"
        d="M63.163,287.545l-4.08,4.08c-3.983,3.983-3.983,10.441,0,14.425c1.992,1.991,4.601,2.986,7.212,2.986 c2.611,0,5.22-0.995,7.212-2.987l4.08-4.08c3.983-3.983,3.983-10.441,0-14.425C73.603,283.561,67.146,283.561,63.163,287.545z">
    </path>
</svg>