<svg viewBox="0 0 512 512" xmlns="http://www.w3.org/2000/svg">
    <!-- Pill bottom -->
    <path fill="currentColor"
        d="M50.085,269.326c-53.182,53.182-53.182,139.406,0,192.587l0,0 c53.182,53.182,139.406,53.182,192.587,0l109.62-109.62L159.706,159.706L50.085,269.326z" />

    <!-- Pill top part -->
    <path fill="#0f780f"
        d="M461.915,50.085L461.915,50.085c-53.182-53.182-139.407-53.182-192.589,0l-109.62,109.621 l192.589,192.589l109.62-109.62C515.096,189.492,515.096,103.267,461.915,50.085z" />

    <!-- Xbox logo -->
    <g transform="translate(350,40) scale(0.5) rotate(45)">
        <path fill="currentColor"
            d="M169.18811,359.44924C140.50497,356.70211,111.4651,346.40125,86.518706,330.1252,65.614374,316.48637,60.893704,310.87967,60.893704,299.69061c0-22.47524,24.711915-61.84014,66.992496-106.71584,24.01246-25.48631,57.46022-55.36001,61.0775-54.55105,7.0309,1.57238,63.25048,56.41053,84.29655,82.2252,33.28077,40.82148,48.58095,74.24535,40.808,89.14682-5.9087,11.32753-42.57224,33.4669-69.50775,41.97242-22.19984,7.01011-51.35538,9.9813-75.37239,7.68108zM32.660004,276.3228C15.288964,249.67326,6.5125436,223.43712,2.2752336,185.49086c-1.39917-12.53-.89778-19.69701,3.17715-45.41515,5.0788204-32.05404,23.3330104-69.136381,45.2671304-91.957616,9.34191-9.719732,10.17624-9.956543,21.56341-6.120482,13.828357,4.658436,28.595936,14.857457,51.498366,35.56661l13.36254,12.082873-7.2969,8.96431C95.97448,140.22403,60.217254,199.2085,46.741444,235.70071c-7.32599,19.83862-10.28084,39.75281-7.12868,48.04363,2.12818,5.59752.17339,3.51093-6.95276-7.42154zm304.915426,4.53255c1.71605-8.37719-.4544-23.76257-5.5413-39.28002-11.01667-33.60598-47.83964-96.12421-81.65282-138.63054L239.73699,89.563875l11.51586-10.574091c15.03631-13.806637,25.47602-22.073835,36.74025-29.094513,8.88881-5.540156,21.59109-10.444558,27.05113-10.444558,3.36626,0,15.21723,12.298726,24.78421,25.720611,14.81725,20.787711,25.71782,45.986976,31.24045,72.219686,3.56833,16.9498,3.8657,53.23126.57486,70.13935-2.70068,13.87582-8.40314,31.87484-13.9661,44.08195-4.16823,9.14657-14.53521,26.91044-19.0783,32.69074-2.33569,2.97175-2.33761,2.96527-1.02393-3.4477zM172.25917,33.104812c-15.60147-7.922671-39.6696-16.427164-52.96493-18.715209-4.66097-.802124-12.61193-1.249474-17.6688-.994114-10.969613.55394-10.479662-.0197,7.11783-8.3336652,14.63023-6.912081,26.83386-10.976696,43.40044-14.455218,18.6362-3.9130858,53.66559-3.9590088,72.00507-.0944,19.80818,4.174105,43.13297,12.854085,56.27623,20.9423862l3.90633,2.403927-8.96247-.452584c-17.81002-.899366-43.76575,6.295879-71.63269,19.857459-8.40538,4.090523-15.71788,7.357511-16.25,7.25997-.53211-.09754-7.38426-3.43589-15.22701-7.418555z" />
    </g>

    <!-- Pill outline -->
    <path fill="black" stroke="black"
        d="M469.127,42.874C441.479,15.226,404.72,0,365.62,0s-75.859,15.226-103.506,42.873L152.5,152.489 c-0.002,0.002-0.003,0.003-0.005,0.005L42.873,262.114C15.226,289.762,0,326.521,0,365.62s15.226,75.858,42.873,103.506 C70.521,496.774,107.28,512,146.38,512s75.859-15.226,103.506-42.873l109.615-109.616c0.002-0.002,0.003-0.003,0.005-0.005 l109.62-109.62C496.774,222.238,512,185.479,512,146.38C512,107.28,496.774,70.521,469.127,42.874z M235.461,454.702 c-23.794,23.795-55.431,36.9-89.081,36.9s-65.288-13.105-89.082-36.9c-23.795-23.794-36.9-55.431-36.9-89.082 s13.105-65.287,36.9-89.082L159.706,174.13L337.87,352.294L235.461,454.702z M454.702,235.461L352.294,337.87L174.13,159.706 L276.539,57.298c23.794-23.795,55.431-36.9,89.081-36.9s65.288,13.105,89.082,36.9c23.795,23.794,36.9,55.431,36.9,89.082 C491.602,180.03,478.497,211.667,454.702,235.461z" />

    <path fill="#0f780f"
        d="M63.163,287.545l-4.08,4.08c-3.983,3.983-3.983,10.441,0,14.425c1.992,1.991,4.601,2.986,7.212,2.986 c2.611,0,5.22-0.995,7.212-2.987l4.08-4.08c3.983-3.983,3.983-10.441,0-14.425C73.603,283.561,67.146,283.561,63.163,287.545z">
    </path>
    <path fill="#0f780f"
        d="M153.936,196.772l-65.275,65.275c-3.983,3.983-3.983,10.441,0,14.425c1.992,1.991,4.601,2.986,7.212,2.986 s5.22-0.995,7.212-2.987l65.275-65.275c3.983-3.983,3.983-10.441,0-14.425C164.375,192.788,157.919,192.788,153.936,196.772z">
    </path>

</svg>